<?xml version="1.0" standalone="no"?>
<!DOCTYPE svg PUBLIC "-//W3C//DTD SVG 20010904//EN"
 "http://www.w3.org/TR/2001/REC-SVG-20010904/DTD/svg10.dtd">
<svg version="1.0" xmlns="http://www.w3.org/2000/svg"
 width="577.000000pt" height="432.000000pt" viewBox="0 0 577.000000 432.000000"
 preserveAspectRatio="xMidYMid meet">

<g transform="translate(0.000000,432.000000) scale(0.100000,-0.100000)"
fill="#000000" stroke="none">
<path d="M3108 3140 c-86 -26 -138 -88 -143 -172 -1 -29 -1 -42 2 -28 17 99
42 139 106 172 46 23 114 27 162 7 17 -6 58 -11 92 -10 73 2 129 -19 186 -68
37 -33 87 -124 87 -160 0 -11 14 -28 34 -41 87 -53 137 -145 139 -254 1 -60 4
-74 23 -88 29 -23 60 -91 75 -164 10 -50 9 -65 -4 -97 -16 -37 -16 -39 12 -90
52 -93 61 -179 30 -275 -7 -22 -23 -39 -47 -52 -21 -10 -30 -19 -22 -20 9 0
26 7 39 16 19 14 25 14 32 3 23 -36 34 -103 34 -209 0 -104 -3 -121 -27 -172
-15 -32 -39 -74 -54 -93 -22 -29 -33 -35 -64 -35 -21 0 -46 3 -55 6 -23 9 -45
57 -46 101 l-1 38 -14 -44 c-17 -54 -38 -79 -78 -90 -17 -5 -23 -10 -13 -10
25 -1 73 25 81 44 5 13 12 10 40 -19 28 -30 40 -36 74 -36 49 0 57 -16 42 -85
-14 -62 -43 -117 -87 -166 -40 -44 -71 -63 -122 -74 -34 -7 -34 -7 -28 26 10
67 -37 129 -96 129 -16 0 -40 9 -54 20 -46 36 -71 23 -106 -52 -12 -27 -25
-40 -49 -47 -18 -5 -25 -10 -15 -10 32 -2 56 19 82 69 14 28 31 50 38 50 6 0
26 -9 42 -20 17 -11 44 -20 61 -20 19 0 41 -9 58 -25 53 -49 26 -182 -49 -239
-153 -117 -400 -88 -473 55 -25 49 -33 140 -18 207 l8 33 20 -26 c14 -18 28
-25 51 -24 l32 1 -33 8 c-18 4 -39 16 -47 26 -19 27 -29 145 -15 188 13 41 35
63 45 45 13 -20 89 -49 133 -49 39 0 110 25 99 36 -2 2 -17 -2 -33 -11 -64
-33 -144 -13 -206 51 -50 53 -69 103 -68 177 1 34 -2 92 -6 129 -4 36 -4 74 0
83 5 15 9 14 32 -4 15 -12 40 -21 58 -20 l31 1 -35 7 c-50 10 -53 13 -91 88
-31 62 -34 76 -34 158 0 83 3 94 32 147 l32 57 -35 21 c-60 38 -80 110 -53
191 16 45 14 44 45 20 15 -11 38 -21 53 -20 27 1 23 4 -20 13 -37 8 -99 91
-99 131 0 53 30 138 65 183 30 39 32 44 21 77 -7 19 -16 38 -21 42 -4 5 -5 0
-2 -10 20 -53 18 -66 -8 -101 -62 -81 -84 -209 -45 -259 18 -23 19 -27 5 -61
-8 -19 -15 -61 -15 -92 0 -55 2 -59 44 -100 l44 -42 -38 -31 c-24 -19 -41 -27
-45 -20 -12 19 -56 30 -71 18 -23 -19 -71 -1 -82 30 -9 26 -6 33 33 71 24 24
49 56 56 72 10 25 9 33 -9 58 -21 27 -21 31 -7 104 8 41 20 95 26 120 8 34 8
62 0 112 -19 105 -37 141 -82 161 l-40 17 48 24 c58 29 73 47 73 84 0 90 -96
138 -178 88 -40 -25 -60 -25 -85 -2 -16 14 -38 17 -121 17 -93 0 -106 -2 -166
-32 -81 -40 -182 -130 -220 -197 -24 -41 -30 -63 -30 -112 0 -69 -16 -98 -76
-135 -29 -18 -40 -20 -60 -10 -62 28 -139 7 -205 -55 -34 -33 -38 -35 -120
-36 -107 -3 -115 2 -89 52 11 22 25 63 31 91 10 46 9 54 -6 65 -27 20 -74 -2
-91 -42 -19 -45 -18 -73 6 -119 18 -36 19 -40 3 -57 -20 -23 -71 -23 -103 -1
-14 9 -52 41 -85 71 -76 71 -123 92 -203 92 -54 0 -67 -4 -87 -25 -14 -13 -25
-35 -25 -49 0 -64 -20 -68 -203 -40 -106 17 -110 17 -160 -3 -80 -32 -85 -33
-97 -18 -9 11 -9 27 -1 65 14 64 14 121 1 155 -9 23 -13 25 -26 14 -13 -11
-15 -31 -12 -113 3 -115 -2 -122 -73 -91 l-38 18 27 35 c38 50 38 129 -1 194
-33 57 -63 70 -89 38 -26 -32 -23 -98 7 -172 14 -34 23 -63 21 -66 -3 -2 -15
3 -28 12 -34 24 -75 20 -94 -9 -9 -14 -14 -32 -10 -40 4 -12 -5 -15 -50 -15
-30 0 -70 7 -89 14 -34 14 -35 14 -35 -7 0 -15 3 -18 8 -9 7 9 15 10 35 3 14
-6 53 -12 85 -15 47 -3 66 -10 88 -31 27 -26 64 -45 85 -45 20 0 49 41 49 70
l0 31 31 -17 c18 -9 45 -14 60 -12 16 3 29 1 29 -3 0 -5 8 -13 18 -18 14 -7
38 -4 89 14 69 24 71 24 168 10 139 -21 192 -20 205 4 5 11 10 28 10 39 0 11
9 31 21 46 18 23 28 26 77 26 73 -1 129 -26 201 -92 100 -91 152 -109 203 -68
20 16 31 18 57 10 17 -5 80 -7 139 -4 82 3 103 2 89 -7 -11 -6 -30 -9 -43 -6
-13 2 -24 0 -24 -4 0 -12 43 -11 74 1 32 12 34 30 4 30 -46 0 -51 15 -16 42
57 43 78 51 130 46 26 -3 51 -8 55 -12 4 -3 -12 -25 -34 -49 -40 -41 -63 -76
-63 -95 0 -5 14 -26 30 -47 17 -21 30 -44 30 -52 0 -9 -22 -40 -50 -70 -27
-30 -50 -63 -50 -73 0 -11 13 -35 30 -53 29 -33 29 -35 11 -51 -25 -23 -79
-142 -86 -191 -5 -31 -1 -51 17 -86 21 -40 22 -50 11 -65 -23 -32 -16 -82 16
-112 27 -26 28 -29 15 -59 -12 -28 -19 -33 -49 -33 -19 0 -53 -7 -75 -16 -99
-40 -91 -155 18 -256 80 -75 108 -75 259 -2 95 46 122 50 178 30 l20 -8 -20
17 c-13 11 -34 15 -62 13 -30 -2 -44 1 -52 14 -6 9 -32 31 -58 49 -68 45 -113
90 -113 111 0 15 6 14 43 -13 54 -40 101 -59 143 -59 18 0 53 -11 78 -24 25
-13 50 -26 55 -28 5 -1 12 -19 16 -38 l6 -36 -78 -18 c-245 -58 -309 -108
-258 -206 26 -50 77 -81 145 -87 53 -5 61 -9 66 -30 8 -32 50 -63 85 -63 16 0
57 9 91 21 69 22 113 16 125 -18 3 -10 26 -49 50 -87 34 -53 41 -71 31 -77
-38 -24 -73 -6 -159 83 -58 59 -71 68 -102 68 -101 0 -44 -115 88 -176 44 -21
65 -24 170 -24 66 0 137 4 158 9 136 32 317 298 267 391 -7 13 -13 60 -14 105
-1 65 -5 87 -19 103 -14 15 -17 29 -12 55 4 20 13 38 20 41 13 5 48 103 59
165 9 53 -10 106 -50 139 -31 26 -35 34 -30 59 4 15 0 46 -7 67 -13 39 -13 40
23 76 21 21 40 50 44 65 4 16 16 40 27 53 10 14 19 35 19 47 0 12 11 32 25 45
29 27 31 24 9 -18 -37 -75 -34 -182 9 -275 18 -39 22 -59 15 -71 -6 -11 -6
-75 -1 -170 8 -142 11 -157 36 -194 l26 -41 -20 -46 c-15 -34 -20 -63 -18
-118 1 -39 -3 -102 -9 -140 -24 -138 24 -235 143 -289 69 -31 196 -31 276 0
66 26 130 79 152 125 13 27 25 35 68 46 96 25 190 150 205 273 l6 58 45 0 c24
0 78 7 119 16 56 11 83 12 107 5 126 -41 379 -62 737 -59 l265 2 -340 7 c-336
6 -464 16 -599 44 -72 15 -91 24 -67 33 28 10 61 51 61 77 0 57 -45 104 -98
105 -39 0 -92 -46 -92 -80 0 -29 26 -76 52 -94 12 -9 20 -18 17 -20 -7 -7
-130 -26 -171 -26 l-38 0 35 46 c56 73 78 164 73 292 -4 75 -11 120 -25 152
-17 39 -18 50 -7 85 7 22 13 61 13 86 1 55 -31 163 -58 199 -18 22 -18 27 -4
54 30 59 -1 192 -64 275 -20 26 -26 44 -24 73 6 92 -58 218 -139 272 -25 16
-40 34 -40 47 0 31 -38 100 -79 142 -62 66 -175 110 -230 89 -16 -5 -40 -3
-75 10 -56 19 -77 21 -118 8z m-678 -28 c-14 -9 -41 -33 -60 -53 -114 -118
-150 -160 -150 -170 0 -6 -12 -21 -27 -32 -16 -12 -49 -41 -75 -66 l-48 -44 0
49 c0 115 137 261 295 316 27 10 59 17 70 17 18 0 18 -2 -5 -17z m130 3 c10 6
40 -5 40 -15 0 -4 -20 -11 -46 -15 -76 -11 -142 -34 -174 -61 -52 -45 -46 -17
8 36 54 52 102 72 140 58 13 -4 27 -6 32 -3z m260 -10 c22 -20 34 -66 25 -95
-6 -20 -110 -80 -139 -80 -12 0 -13 7 -5 35 14 49 8 117 -11 123 -13 5 -13 3
-1 -11 10 -12 12 -31 7 -67 -11 -79 -16 -86 -37 -50 -11 17 -19 38 -19 47 0
29 40 100 63 111 29 15 94 8 117 -13z m-202 -61 l3 -31 -50 5 c-33 3 -59 -1
-81 -12 -22 -11 -45 -14 -71 -10 -69 11 -44 33 74 64 99 26 121 23 125 -16z
m-20 -43 c19 -11 11 -45 -11 -49 -9 -2 -38 4 -63 14 -42 16 -45 19 -28 31 20
15 82 17 102 4z m-204 -29 c15 -18 15 -20 -3 -36 -29 -27 -55 -17 -59 22 -3
28 0 32 21 32 13 0 31 -8 41 -18z m36 8 c13 -8 13 -10 -2 -10 -9 0 -20 5 -23
10 -8 13 5 13 25 0z m-110 -27 c0 -23 -7 -31 -40 -45 -22 -9 -40 -13 -40 -9 0
9 66 81 74 81 3 0 6 -12 6 -27z m192 -1 c-19 -6 -64 7 -57 18 3 5 19 4 37 -2
18 -6 27 -13 20 -16z m138 -3 c0 -5 -4 -9 -10 -9 -5 0 -10 7 -10 16 0 8 5 12
10 9 6 -3 10 -10 10 -16z m-92 -15 c27 -5 29 -30 3 -43 -31 -17 -108 -19 -137
-5 -14 8 -31 11 -37 7 -12 -7 -1 14 21 39 12 15 26 17 71 12 31 -3 66 -7 79
-10z m98 -51 c-3 -27 -13 -70 -22 -96 l-16 -49 -22 21 c-12 12 -32 21 -44 21
-28 0 -28 2 5 58 43 75 43 76 70 51 12 -13 23 -18 23 -12 0 6 -7 16 -15 23
-21 18 -19 30 6 30 20 0 21 -4 15 -47z m-312 18 c11 -17 -6 -41 -29 -41 -12 0
-39 -11 -59 -25 l-36 -24 0 22 c0 29 9 41 45 60 34 18 71 22 79 8z m341 -19
c-4 -19 -1 -33 9 -41 17 -14 7 -49 -39 -142 -15 -29 -21 -48 -13 -42 13 11 59
104 72 146 5 16 8 16 43 2 53 -22 67 -39 67 -80 0 -58 -30 -79 -119 -85 -93
-6 -98 3 -55 86 25 46 30 66 25 92 -6 33 1 92 12 92 2 0 2 -13 -2 -28z m100 8
c28 -17 35 -31 50 -90 9 -38 15 -75 12 -82 -3 -7 -6 -1 -6 14 -1 27 -25 62
-95 136 -38 39 -39 42 -17 42 13 0 38 -9 56 -20z m-2446 -16 c55 -70 63 -158
18 -210 l-23 -26 -32 69 c-34 73 -40 125 -20 168 14 32 31 32 57 -1z m2368
-21 c-3 -10 -5 -4 -5 12 0 17 2 24 5 18 2 -7 2 -21 0 -30z m-303 17 c15 -5 38
-31 55 -62 l30 -53 -51 -52 c-45 -45 -58 -53 -90 -53 l-38 0 0 55 c0 30 6 69
14 87 8 18 19 45 25 61 12 30 18 32 55 17z m131 -50 c-14 -27 -29 -50 -33 -50
-7 0 -52 73 -52 84 0 4 22 8 93 14 15 2 15 -4 -8 -48z m225 15 c26 -28 23 -31
-15 -13 -14 6 -25 17 -25 25 0 20 14 16 40 -12z m-552 -12 c-2 -16 -18 -53
-36 -83 -27 -44 -33 -64 -30 -99 3 -42 2 -45 -32 -57 -47 -17 -71 -16 -94 1
-20 15 -20 16 2 60 21 43 166 205 183 205 5 0 8 -12 7 -27z m107 0 c-3 -16
-15 -47 -26 -70 -18 -36 -23 -41 -39 -33 -16 8 -38 67 -28 74 1 1 18 14 36 29
45 36 66 36 57 0z m-1830 -44 c9 -29 -4 -151 -16 -144 -12 8 -12 165 0 165 5
0 13 -10 16 -21z m2165 -34 c-6 -15 -13 -25 -17 -22 -3 4 0 21 8 38 16 39 24
24 9 -16z m-430 -12 c0 -7 -9 -13 -20 -13 -23 0 -24 4 -9 32 9 17 13 18 20 7
5 -8 9 -20 9 -26z m372 15 l21 -21 -27 -24 c-15 -12 -33 -23 -40 -23 -17 0
-40 54 -32 75 8 22 53 18 78 -7z m-1060 -28 c-5 -42 -40 -140 -52 -140 -4 0
-15 16 -25 36 -31 65 1 148 54 142 23 -3 26 -7 23 -38z m768 -36 c0 -27 -4
-43 -10 -39 -17 11 -11 85 7 85 2 0 3 -21 3 -46z m173 11 c-5 -34 -4 -35 24
-35 41 0 59 -22 35 -42 -33 -29 -41 -28 -86 4 l-46 32 37 38 c20 21 38 38 39
38 2 0 0 -16 -3 -35z m47 -17 c0 -4 -9 -8 -20 -8 -21 0 -24 8 -13 36 6 16 7
16 20 -2 7 -10 13 -21 13 -26z m-284 18 c8 -20 -35 -86 -57 -86 -23 0 -35 41
-20 67 9 16 10 16 11 1 0 -9 4 -20 10 -23 6 -4 7 6 4 25 -6 27 -4 30 20 30 15
0 29 -6 32 -14z m374 -3 c0 -4 -10 -18 -22 -31 -21 -24 -22 -25 -3 -18 16 6
18 5 7 -5 -10 -11 -15 -10 -29 3 -15 16 -15 18 8 37 25 21 39 26 39 14z m-349
-37 c-6 -14 -15 -26 -21 -26 -14 0 -13 8 8 35 21 29 26 26 13 -9z m565 -91
c-9 -20 -13 -41 -10 -46 3 -5 3 -23 -1 -40 l-7 -30 -40 37 c-22 20 -54 42 -72
49 -46 20 -73 52 -60 73 8 12 30 18 82 22 57 4 76 10 94 28 l23 23 3 -40 c2
-21 -4 -56 -12 -76z m-2551 88 c19 -9 35 -20 35 -23 0 -9 -70 -30 -98 -30 -25
0 -35 25 -22 51 13 23 38 24 85 2z m1720 -24 c-21 -39 -14 -56 28 -74 18 -7
41 -23 51 -34 11 -12 31 -21 45 -21 25 0 26 -2 23 -44 -2 -27 2 -55 12 -75 36
-69 -37 -15 -94 70 -65 95 -103 99 -135 15 -21 -55 -14 -88 25 -127 26 -26 35
-29 95 -29 l66 0 -18 -25 c-13 -17 -28 -24 -51 -25 -46 0 -102 -26 -134 -61
-15 -16 -31 -29 -36 -29 -17 0 -72 57 -72 74 0 9 23 41 50 71 28 30 50 65 50
77 0 11 -11 36 -25 54 -37 48 -32 75 21 129 35 34 51 44 66 39 15 -4 18 -3 13
6 -5 8 -1 18 10 27 27 19 27 17 10 -18z m350 -9 c-12 -13 -22 -17 -28 -11 -13
13 1 31 25 31 21 0 21 -1 3 -20z m102 -13 c82 -56 105 -152 56 -236 -15 -26
-20 -40 -11 -33 47 38 64 143 33 202 -9 17 -15 33 -13 33 2 1 20 11 41 21 20
11 39 17 42 15 9 -10 7 -86 -4 -113 -11 -27 -9 -99 5 -164 4 -21 2 -23 -23
-18 -15 3 -49 7 -74 8 l-47 1 19 31 c29 47 24 65 -20 83 -22 9 -42 22 -45 30
-3 8 12 33 35 58 45 49 40 53 -34 31 -40 -12 -47 -12 -63 3 -16 15 -16 15 -11
-1 3 -10 1 -20 -5 -24 -24 -15 2 57 29 81 30 26 41 25 90 -8z m-156 7 c16 -20
-2 -34 -45 -34 -26 0 -27 2 -15 18 29 36 41 39 60 16z m-1955 -19 c7 -28 -18
-75 -40 -75 -18 0 -78 42 -84 58 -2 7 6 12 20 12 13 1 37 7 53 15 42 19 44 18
51 -10z m2219 15 c-3 -5 -12 -10 -18 -10 -7 0 -6 4 3 10 19 12 23 12 15 0z
m-381 -28 c3 -5 -4 -23 -14 -40 -23 -38 -58 -42 -85 -12 -21 23 -22 22 30 42
47 19 62 21 69 10z m463 -39 c-11 -10 -27 8 -27 30 l0 21 16 -22 c9 -13 14
-26 11 -29z m-327 13 c0 -16 -11 -32 -29 -45 -16 -11 -36 -38 -44 -58 -8 -21
-26 -48 -40 -61 l-25 -24 -12 36 c-27 82 16 162 91 169 24 2 47 4 52 5 4 1 7
-9 7 -22z m108 -37 c-21 -28 -24 -29 -35 -13 -18 25 -16 32 10 37 46 9 48 7
25 -24z m-33 -50 c-4 -5 -22 -9 -41 -9 -32 0 -34 2 -28 28 4 15 12 30 18 34
13 9 59 -39 51 -53z m325 35 c55 -37 50 -51 -15 -45 -20 2 -75 48 -75 63 0 17
52 7 90 -18z m-698 -11 c13 -16 35 -45 48 -66 12 -22 40 -51 61 -67 l39 -27
-38 -7 c-140 -23 -201 11 -190 109 5 41 30 85 48 85 3 0 18 -12 32 -27z m288
-11 c0 -21 -7 -32 -25 -40 -21 -10 -25 -9 -25 5 0 14 36 63 47 63 2 0 3 -13 3
-28z m342 -9 c29 -27 83 -37 119 -20 32 16 45 -64 17 -100 -21 -26 -103 -64
-132 -61 -27 3 -32 8 -38 43 -9 53 -10 165 -1 165 4 0 20 -12 35 -27z m-278
-58 c-3 -12 -1 -40 5 -61 6 -21 8 -40 6 -43 -8 -8 -82 19 -95 34 -11 13 -9 23
6 55 19 40 35 49 66 42 13 -3 16 -11 12 -27z m64 -28 c16 -55 11 -77 -17 -77
-22 0 -31 25 -31 88 0 36 3 43 17 40 11 -2 22 -21 31 -51z m-148 23 c-12 -23
-30 -27 -30 -7 0 17 10 27 27 27 11 0 11 -5 3 -20z m174 14 c17 -7 21 -41 7
-62 -6 -10 -10 -7 -15 11 -3 14 -9 32 -12 41 -7 18 -4 19 20 10z m380 -20 c14
-36 4 -61 -39 -104 -25 -24 -45 -42 -45 -39 0 3 13 30 30 60 16 30 30 64 30
77 0 25 15 30 24 6z m-590 -9 c3 -9 -4 -21 -20 -31 -34 -23 -43 -9 -14 21 28
29 26 29 34 10z m27 -51 c18 -22 64 -44 94 -44 34 0 32 -18 -2 -22 -19 -2 -38
5 -61 24 -20 18 -45 28 -65 28 -30 1 -31 1 -13 15 25 19 30 19 47 -1z m-125
-69 c-6 -31 -23 -45 -38 -29 -6 6 34 74 41 68 2 -2 0 -19 -3 -39z m81 25 c14
-11 43 -24 63 -30 47 -13 59 -45 30 -75 -20 -20 -20 -20 -93 5 -65 23 -72 27
-70 50 8 75 24 86 70 50z m54 0 c13 -10 20 -19 16 -20 -11 0 -67 29 -67 35 0
12 30 3 51 -15z m473 -4 c-9 -15 -21 -22 -30 -19 -20 8 -17 18 9 31 34 17 39
14 21 -12z m-157 0 c18 -17 -88 -53 -132 -44 -29 5 -25 40 5 50 25 7 118 3
127 -6z m112 -25 c17 -11 9 -24 -29 -51 -26 -18 -30 -19 -30 -5 0 9 5 13 11 9
8 -4 9 0 4 15 -11 35 12 52 44 32z m-329 -22 c-12 -21 -31 -22 -37 -2 -4 10
11 18 40 22 4 0 3 -8 -3 -20z m40 7 c0 -3 -4 -8 -10 -11 -5 -3 -10 -1 -10 4 0
6 5 11 10 11 6 0 10 -2 10 -4z m190 -31 c0 -33 -1 -35 -27 -29 -16 4 -36 14
-46 22 -12 11 -21 13 -25 6 -5 -8 -18 -7 -42 3 -35 13 -35 13 -4 9 17 -3 48 1
70 9 64 23 74 20 74 -20z m17 13 c-3 -8 -6 -5 -6 6 -1 11 2 17 5 13 3 -3 4
-12 1 -19z m-579 3 c9 -5 -1 -10 -30 -14 -23 -2 -52 -8 -62 -13 -14 -5 -17 -4
-12 4 4 6 21 16 39 21 42 12 49 12 65 2z m88 -23 c3 -5 4 -12 1 -14 -7 -7 -47
15 -47 25 0 11 38 2 46 -11z m614 -8 c0 -11 -6 -20 -14 -20 -21 0 -31 21 -15
31 22 14 29 11 29 -11z m-710 3 c-1 -25 -35 -39 -87 -34 -23 2 -14 19 15 29
33 13 72 15 72 5z m474 -13 c27 -10 28 -14 23 -52 -3 -23 -12 -45 -21 -50 -8
-5 -13 -15 -10 -23 6 -14 -34 -95 -45 -95 -15 1 -79 103 -91 145 -12 44 -12
48 11 71 20 20 31 23 65 19 22 -2 53 -9 68 -15z m-390 -11 c15 -14 2 -20 -32
-13 -21 4 -29 11 -25 20 5 15 38 11 57 -7z m89 3 c49 -19 53 -32 8 -32 -28 0
-71 25 -71 41 0 13 8 12 63 -9z m545 -70 c2 -33 -1 -52 -8 -52 -6 0 -8 -6 -4
-12 4 -8 3 -10 -2 -5 -5 5 -9 14 -9 20 0 7 -15 17 -33 23 -38 12 -52 28 -52
61 0 32 27 43 69 28 34 -11 36 -14 39 -63z m-163 60 c19 -6 18 -10 -19 -46
-22 -22 -36 -32 -33 -22 4 10 7 31 7 47 0 29 7 33 45 21z m-579 -28 c-3 -9 -6
-28 -7 -42 l-1 -27 -13 30 c-20 42 -18 55 6 55 15 0 19 -4 15 -16z m114 -1
c17 -15 -15 -153 -36 -153 -35 0 -64 88 -48 148 6 20 11 22 43 16 20 -4 38 -9
41 -11z m215 -15 c-13 -62 -38 -87 -51 -53 -10 26 16 85 38 85 17 0 19 -4 13
-32z m493 -1 c10 -12 24 -37 30 -54 10 -31 9 -33 -15 -39 -14 -4 -37 -3 -52 2
-23 9 -25 14 -24 64 1 30 2 56 2 57 3 7 43 -13 59 -30z m61 20 c13 -16 5 -27
-19 -27 -20 0 -43 24 -33 33 11 12 40 8 52 -6z m-1040 -71 c-35 -104 -3 -166
86 -166 40 0 55 -11 55 -40 0 -4 -28 -10 -62 -12 -35 -2 -79 -12 -98 -21 -35
-18 -35 -18 -57 8 -36 41 -34 109 3 194 27 60 73 116 85 104 4 -5 -1 -35 -12
-67z m108 62 c13 -16 23 -58 15 -58 -4 0 -20 12 -36 26 -23 21 -26 28 -15 35
19 12 25 11 36 -3z m271 -37 c60 -50 59 -81 -5 -103 -27 -9 -63 -20 -82 -23
-32 -7 -34 -6 -27 16 4 13 11 49 17 79 17 94 20 94 97 31z m46 22 c-9 -39 -11
-39 -40 -12 l-26 24 29 6 c15 4 31 7 36 8 4 0 4 -11 1 -26z m336 -3 c0 -15 -7
-20 -27 -20 -25 0 -26 0 -8 20 10 11 22 20 27 20 4 0 8 -9 8 -20z m-699 -22
c7 -13 25 -38 40 -56 36 -41 37 -74 3 -101 -32 -26 -46 -26 -73 -3 -31 24 -37
82 -16 137 19 50 29 55 46 23z m134 -88 c19 -21 19 -21 -1 -14 -16 5 -16 3 4
-13 13 -10 20 -22 16 -26 -13 -13 -74 55 -74 82 1 24 2 24 16 -8 8 -19 17 -31
20 -28 3 3 1 14 -5 25 -6 12 -10 38 -10 59 2 37 2 37 8 -9 4 -26 15 -56 26
-68z m599 95 c3 -9 0 -15 -9 -15 -8 0 -15 7 -15 15 0 8 4 15 9 15 5 0 11 -7
15 -15z m256 -30 c-17 -20 -27 -19 -33 6 -4 14 1 22 16 28 26 10 36 -11 17
-34z m-920 -38 c-1 -7 -12 2 -25 18 -32 39 -32 58 0 22 14 -15 25 -33 25 -40z
m380 38 c0 -8 20 -38 44 -68 42 -52 45 -64 21 -95 -2 -2 -14 0 -28 3 -19 5
-26 15 -30 42 -4 20 -16 46 -28 59 -19 21 -20 26 -9 53 12 30 30 33 30 6z
m225 5 c3 -5 1 -10 -4 -10 -6 0 -11 5 -11 10 0 6 2 10 4 10 3 0 8 -4 11 -10z
m-7 -32 c2 -4 7 -6 10 -4 4 2 8 -7 9 -21 1 -18 -2 -22 -7 -13 -6 10 -10 6 -15
-16 -11 -50 -13 -53 -44 -69 -43 -22 -40 -3 9 52 22 25 40 51 40 57 0 6 -11
-2 -24 -19 -59 -74 -63 -78 -80 -72 -15 6 -13 13 14 67 28 56 32 60 58 54 15
-4 29 -11 30 -16z m86 6 c9 -24 8 -26 -14 -14 -11 6 -18 15 -15 21 9 14 22 11
29 -7z m55 -18 c30 -32 19 -53 -14 -29 -23 17 -34 53 -17 53 5 0 19 -11 31
-24z m-419 10 c0 -3 -4 -8 -10 -11 -5 -3 -10 -1 -10 4 0 6 5 11 10 11 6 0 10
-2 10 -4z m370 -46 c0 -18 -36 -70 -48 -70 -4 0 -13 4 -21 9 -11 7 -11 16 4
54 16 43 19 45 41 35 13 -6 24 -19 24 -28z m-341 16 c7 -8 16 -28 21 -46 8
-26 6 -31 -7 -28 -20 4 -57 63 -48 78 9 14 20 13 34 -4z m504 4 c15 0 27 -5
27 -12 0 -14 -48 -78 -59 -78 -8 0 -41 76 -41 94 0 5 10 6 23 2 12 -3 34 -6
50 -6z m-520 -65 c45 -52 43 -69 -9 -114 -39 -34 -67 -42 -39 -11 28 31 8 59
-66 96 -37 19 -58 34 -49 37 8 2 35 11 60 19 63 22 61 22 103 -27z m397 30
c10 -12 8 -22 -14 -53 -14 -21 -43 -55 -65 -76 l-39 -38 -21 40 c-11 22 -26
42 -33 44 -8 3 -2 11 14 22 22 15 30 15 47 4 27 -17 51 -3 70 40 16 36 23 39
41 17z m-686 -48 c-19 -11 -34 6 -34 37 0 18 2 18 25 -4 23 -21 24 -25 9 -33z
m740 37 c5 -14 4 -15 -9 -4 -17 14 -19 20 -6 20 5 0 12 -7 15 -16z m-592 -47
c40 -19 79 -41 87 -51 12 -14 11 -20 -10 -42 -32 -35 -91 -64 -129 -64 -34 0
-37 5 -15 26 22 22 18 56 -11 99 -24 36 -26 65 -5 65 6 0 43 -15 83 -33z m598
-21 c0 -6 -7 -20 -15 -30 -8 -11 -15 -35 -15 -53 0 -24 -10 -44 -37 -73 -68
-76 -94 -74 -108 11 -6 35 -4 41 23 64 16 13 49 50 73 81 l43 56 18 -22 c10
-12 18 -27 18 -34z m-300 19 c0 -8 -7 -15 -15 -15 -9 0 -12 6 -9 15 4 8 10 15
15 15 5 0 9 -7 9 -15z m-385 -38 c30 -52 31 -68 6 -91 -21 -19 -55 -11 -47 11
3 8 -5 25 -19 37 -29 27 -34 72 -7 79 35 9 42 6 67 -36z m309 17 c29 -11 16
-33 -34 -59 l-49 -25 24 36 c14 20 25 41 25 45 0 10 12 11 34 3z m143 -36 c39
-38 42 -71 9 -93 -22 -15 -26 -14 -65 11 -45 30 -46 31 -30 71 19 52 41 55 86
11z m-107 -33 c-8 -21 -14 -25 -22 -17 -8 8 -6 18 7 39 21 32 30 19 15 -22z
m336 8 c-8 -15 -15 -22 -16 -15 0 17 20 55 27 49 2 -3 -2 -18 -11 -34z m29
-61 c-3 -3 -10 -1 -15 4 -7 7 -6 22 2 45 l13 34 3 -39 c2 -21 1 -41 -3 -44z
m-793 43 c13 -30 16 -26 -50 -58 l-53 -26 -45 32 c-36 25 -55 46 -41 47 1 0
20 7 42 15 22 8 61 14 88 15 41 0 49 -3 59 -25z m380 3 c-6 -6 -15 -8 -19 -4
-4 4 -1 11 7 16 19 12 27 3 12 -12z m-352 -9 c0 -6 -4 -7 -10 -4 -5 3 -10 11
-10 16 0 6 5 7 10 4 6 -3 10 -11 10 -16z m232 -49 c-20 -21 -32 -28 -37 -20
-8 13 -5 17 32 40 38 24 39 18 5 -20z m108 14 c-18 -45 -12 -119 11 -148 11
-14 17 -26 12 -26 -26 0 -143 98 -143 120 0 5 14 25 31 45 24 27 39 35 65 35
32 0 33 -1 24 -26z m46 18 c6 -4 14 -36 17 -72 5 -50 3 -70 -9 -85 -15 -20
-15 -20 -35 4 -21 26 -25 81 -8 130 11 32 16 36 35 23z m-581 -29 c22 -14 42
-27 44 -29 2 -2 -13 -19 -33 -37 l-36 -35 -25 20 c-27 21 -34 75 -13 96 16 16
18 16 63 -15z m204 2 c-2 -9 -102 -55 -121 -55 -22 0 -3 19 45 42 52 27 80 32
76 13z m451 -5 l25 -19 -30 -31 -30 -31 -6 23 c-12 40 -10 78 4 78 6 0 23 -9
37 -20z m73 -19 c-4 -14 -11 -20 -20 -16 -11 4 -13 1 -9 -11 7 -18 -37 -94
-53 -94 -6 0 -13 10 -16 21 -6 17 4 33 46 75 29 29 54 52 56 51 1 -2 0 -13 -4
-26z m173 1 c-21 -40 -125 -172 -137 -172 -5 0 -9 9 -9 20 0 10 -7 40 -16 65
-14 43 -12 85 5 85 4 0 11 -15 16 -32 16 -53 48 -50 104 10 25 28 47 51 49 51
1 1 -4 -12 -12 -27z m52 7 c3 -17 -56 -89 -99 -120 -27 -19 -25 -13 23 59 51
77 70 92 76 61z m-670 -4 c3 -2 -75 -55 -82 -55 -11 0 -76 -43 -72 -47 2 -3
16 3 30 13 30 19 46 13 26 -11 -13 -16 -47 -20 -66 -7 -7 4 -14 20 -15 35 -4
26 1 30 61 56 55 24 100 30 118 16z m107 -49 c-3 -11 -7 -37 -9 -56 -2 -19 -7
-35 -12 -34 -79 4 -174 19 -174 26 0 31 92 108 146 120 25 6 55 -28 49 -56z
m618 20 c32 -29 39 -56 35 -122 -4 -51 -5 -50 -31 21 -6 17 -24 42 -40 57 -24
23 -26 30 -17 48 14 26 21 25 53 -4z m-968 -32 l-30 -25 33 16 c38 19 52 13
52 -21 0 -22 -3 -24 -27 -18 -16 4 -39 12 -51 19 l-24 12 32 27 c18 15 35 24
38 21 4 -3 -7 -17 -23 -31z m490 -86 c34 -16 31 -36 -7 -46 l-33 -9 25 -11
c23 -10 23 -11 4 -11 -12 -1 -24 6 -28 14 -4 10 -14 13 -34 9 -18 -4 -32 -1
-37 6 -11 19 4 25 27 11 18 -11 20 -11 15 2 -4 12 1 13 31 6 20 -4 38 -6 40
-4 6 6 -64 25 -84 24 -48 -5 -54 0 -54 40 0 73 7 76 61 26 26 -25 60 -50 74
-57z m203 37 c17 -65 17 -67 -25 -60 -66 11 -66 11 -31 59 18 25 35 45 38 46
3 0 11 -20 18 -45z m245 15 c30 -35 53 -132 40 -163 -9 -19 -10 -18 -22 11
-12 30 -37 46 -71 47 -11 0 -15 12 -15 50 1 90 23 108 68 55z m-904 -26 c9 -8
-35 -33 -56 -34 -18 0 -23 6 -23 25 0 24 2 26 38 19 20 -4 39 -8 41 -10z m551
-10 c0 -8 -7 -14 -15 -14 -15 0 -21 21 -9 33 10 9 24 -2 24 -19z m270 -24 c0
-49 0 -49 -26 -40 -14 6 -36 10 -50 10 -13 0 -24 3 -24 8 1 6 89 72 98 72 1 0
2 -22 2 -50z m-914 3 c-11 -11 -17 4 -9 23 7 18 8 18 11 1 2 -10 1 -21 -2 -24z
m184 -12 c0 -24 9 -51 25 -75 l24 -36 -25 0 c-48 0 -164 64 -164 91 0 6 15 16
34 24 19 8 37 19 41 25 3 5 19 10 36 10 27 0 29 -3 29 -39z m149 19 c59 -8 86
-23 75 -41 -2 -4 -21 -1 -41 7 -50 21 -83 12 -83 -24 0 -15 6 -34 12 -40 10
-10 10 -15 -2 -22 -27 -17 -48 -11 -70 20 -12 17 -24 49 -27 70 l-6 40 39 0
c22 0 68 -5 103 -10z m333 -33 c9 -14 -47 -41 -68 -33 -15 6 -19 38 -7 50 11
11 65 -2 75 -17z m-651 -25 c-15 -27 10 -57 98 -117 39 -26 72 -54 75 -61 15
-38 -136 -61 -183 -28 -13 9 -29 31 -37 48 -7 17 -13 25 -14 18 0 -7 7 -26 15
-41 16 -32 84 -65 111 -54 11 4 15 2 11 -5 -13 -20 -95 -45 -130 -38 -66 12
-148 103 -161 177 -13 73 24 115 112 126 l50 6 -9 -39 c-4 -22 -8 -52 -8 -69
1 -24 3 -21 10 15 5 25 12 55 14 67 5 22 33 35 48 22 5 -4 4 -16 -2 -27z m347
13 c26 -7 28 -27 6 -49 -23 -23 -53 -20 -66 8 -14 31 -4 59 19 52 10 -2 28 -7
41 -11z m349 9 c-3 -3 -12 -4 -19 -1 -8 3 -5 6 6 6 11 1 17 -2 13 -5z m53 -13
c0 -11 -25 -21 -51 -21 -29 0 -23 18 9 23 15 2 30 5 35 6 4 0 7 -3 7 -8z m78
-24 c29 -27 28 -37 -8 -82 -32 -40 -34 -39 -44 33 -7 47 0 51 38 21 18 -15 24
-16 20 -5 -3 8 -19 21 -35 28 -29 13 -34 20 -23 31 8 8 21 1 52 -26z m-407 8
c-1 -6 -5 -10 -10 -10 -5 0 -13 -3 -17 -7 -4 -5 -12 -8 -17 -8 -6 0 -2 9 9 19
20 20 36 23 35 6z m462 -5 c4 -4 1 -12 -6 -19 -12 -9 -18 -6 -32 15 -17 26
-16 26 7 19 12 -4 27 -11 31 -15z m-213 2 c0 -11 -51 -35 -57 -28 -3 3 -12 -1
-20 -9 -19 -19 -43 -19 -43 0 0 13 12 19 32 16 4 0 22 6 40 14 39 17 48 18 48
7z m307 -14 c13 -17 23 -58 15 -58 -4 0 -15 14 -24 30 -9 17 -23 30 -29 30 -7
0 -4 -9 8 -22 40 -45 39 -87 -4 -88 -12 0 -28 93 -18 110 9 14 40 13 52 -2z
m-503 -8 c19 -7 26 -17 26 -35 0 -14 -2 -25 -4 -25 -2 0 -11 -3 -20 -6 -10 -4
-20 5 -30 25 -27 51 -21 60 28 41z m290 -27 c15 -91 0 -111 -29 -38 -13 36
-14 49 -5 60 19 23 27 18 34 -22z m-339 -3 c8 -16 15 -34 15 -40 0 -20 -55
-10 -85 17 -16 14 -22 23 -12 20 9 -4 17 -2 17 4 0 7 23 22 47 28 1 1 9 -12
18 -29z m113 8 c-5 -32 -28 -35 -28 -4 0 17 5 26 16 26 10 0 14 -7 12 -22z
m132 -3 c-18 -19 -26 -22 -32 -13 -12 19 -10 26 10 31 40 11 45 7 22 -18z
m240 -2 c0 -16 3 -39 7 -52 5 -19 2 -22 -13 -19 -22 4 -38 66 -22 85 17 21 28
15 28 -14z m1384 -5 c15 -13 29 -37 32 -55 5 -27 1 -37 -24 -63 -34 -34 -61
-38 -97 -14 -22 14 -45 60 -45 91 0 23 51 63 81 63 15 0 39 -10 53 -22z
m-1610 -13 c-9 -14 -21 -25 -27 -25 -6 0 0 11 13 25 13 14 25 25 27 25 2 0 -4
-11 -13 -25z m-56 -6 c3 -16 -43 -79 -58 -79 -4 0 -11 17 -15 37 -5 30 -3 40
12 50 23 17 57 13 61 -8z m-300 -1 c28 -28 5 -36 -45 -17 -22 8 -24 12 -13 19
21 13 44 12 58 -2z m398 -23 c17 -43 17 -45 0 -45 -8 0 -18 -5 -22 -11 -4 -8
0 -9 15 -4 12 4 21 2 21 -4 0 -20 -39 -11 -54 11 -20 29 -20 47 1 70 21 24 22
24 39 -17z m-186 -6 c0 -11 5 -30 11 -41 15 -29 -12 -58 -36 -38 -21 17 -8
100 16 100 5 0 9 -9 9 -21z m320 -3 c0 -14 -35 -28 -44 -18 -9 8 25 42 35 36
5 -3 9 -11 9 -18z m-495 4 c3 -5 1 -10 -4 -10 -6 0 -11 5 -11 10 0 6 2 10 4
10 3 0 8 -4 11 -10z m135 -7 c0 -10 -4 -24 -9 -31 -6 -10 -10 -8 -14 9 -3 12
-4 26 -1 31 9 14 24 9 24 -9z m146 -43 c0 -45 -2 -50 -22 -50 -12 0 -27 7 -34
15 -10 12 -8 21 14 50 15 19 30 35 34 35 4 0 7 -23 8 -50z m-180 25 c9 -21
-11 -42 -53 -56 -32 -10 -38 -9 -50 7 -7 10 -13 26 -13 36 0 23 46 24 74 3 30
-22 42 -18 15 5 l-24 19 23 1 c12 0 25 -7 28 -15z m191 -37 c-3 -7 -5 -2 -5
12 0 14 2 19 5 13 2 -7 2 -19 0 -25z m213 23 c0 -11 -69 -20 -76 -10 -2 4 6
10 18 12 41 8 58 7 58 -2z m50 -1 c0 -5 -7 -10 -15 -10 -8 0 -15 5 -15 10 0 6
7 10 15 10 8 0 15 -4 15 -10z m50 -20 c0 -5 -4 -10 -10 -10 -5 0 -10 5 -10 10
0 6 5 10 10 10 6 0 10 -4 10 -10z m-100 -9 c0 -12 -21 -19 -38 -13 -11 4 -11
6 0 13 17 11 38 11 38 0z m-375 -13 c33 -15 32 -22 -9 -47 -45 -28 -52 -26
-27 5 12 15 21 32 21 38 0 6 -11 -6 -25 -27 -30 -43 -35 -44 -60 -17 -21 23
-22 22 30 42 22 9 41 16 42 17 1 1 14 -4 28 -11z m333 -8 c17 -8 32 -17 32
-20 0 -4 -14 -19 -31 -36 l-31 -29 -19 24 c-22 26 -25 67 -6 74 6 3 14 4 17 3
3 -1 20 -9 38 -16z m105 2 c6 -9 1 -22 -14 -38 -30 -32 -39 -30 -39 6 0 17 5
30 11 30 5 0 8 4 5 9 -3 5 2 8 12 7 9 0 21 -7 25 -14z m-334 -12 c22 -19 24
-50 3 -50 -16 0 -54 48 -47 59 9 15 16 13 44 -9z m131 10 c0 -5 -7 -10 -15
-10 -8 0 -15 5 -15 10 0 6 7 10 15 10 8 0 15 -4 15 -10z m265 -30 c15 -29 21
-130 8 -130 -10 0 -53 141 -47 152 10 15 24 8 39 -22z m-245 2 c0 -11 9 -27
20 -37 11 -10 20 -21 20 -25 0 -7 -71 -43 -75 -38 -10 10 -7 89 4 102 18 21
31 20 31 -2z m-357 -21 c23 -27 71 -44 157 -54 21 -2 16 -8 -36 -34 -34 -18
-76 -44 -94 -59 l-32 -28 6 60 c7 53 5 63 -18 97 -14 21 -26 40 -26 42 0 14
21 2 43 -24z m170 1 c15 -16 24 -31 20 -35 -13 -13 -124 -3 -123 12 1 6 60 48
71 50 3 1 17 -12 32 -27z m-209 -1 c10 -11 16 -24 13 -28 -3 -5 -1 -30 5 -56
8 -42 7 -50 -13 -78 -20 -29 -102 -89 -121 -89 -13 0 -9 63 7 112 17 47 66
103 100 111 19 4 19 5 -1 6 -53 3 -113 -85 -123 -179 l-6 -55 -38 -3 c-104 -9
-202 104 -152 174 18 26 98 62 190 85 92 23 118 23 139 0z m321 3 c-12 -9 -21
-11 -23 -4 -2 5 -9 7 -14 4 -6 -4 -9 -3 -5 2 3 5 18 10 34 11 27 2 27 2 8 -13z
m290 -52 c9 -29 14 -56 10 -60 -4 -4 -10 -1 -12 6 -7 18 -62 45 -79 38 -8 -3
-14 1 -14 9 0 18 62 76 71 67 4 -4 14 -31 24 -60z m-105 19 c-6 -12 -17 -21
-25 -21 -21 0 -19 10 7 37 25 26 36 16 18 -16z m-161 -33 c1 -16 -6 -31 -16
-37 -14 -7 -22 -2 -39 27 l-23 37 32 17 c30 15 32 15 39 0 4 -10 7 -29 7 -44z
m-64 -19 c9 -17 15 -32 13 -34 -13 -11 -51 -26 -55 -21 -8 8 8 86 18 86 4 0
16 -14 24 -31z m185 25 c0 -3 -27 -30 -60 -61 -33 -30 -60 -59 -60 -64 0 -5
28 18 62 51 69 68 111 83 57 21 -19 -21 -47 -54 -62 -75 -15 -20 -36 -36 -46
-36 -15 0 -18 7 -16 43 1 23 6 51 12 61 16 29 113 81 113 60z m-234 -20 c-3
-9 -6 -28 -6 -44 0 -18 -11 -41 -30 -62 -29 -31 -35 -44 -42 -93 -3 -16 -11
-20 -41 -20 -21 0 -41 4 -44 9 -4 5 -1 6 7 1 8 -5 4 5 -7 21 -39 55 -32 88 27
125 23 13 60 36 83 51 49 31 61 34 53 12z m354 -20 c0 -2 -9 0 -20 6 -11 6
-20 13 -20 16 0 2 9 0 20 -6 11 -6 20 -13 20 -16z m-20 -4 c49 -25 62 -72 36
-127 -25 -53 -112 -139 -170 -168 l-51 -26 -5 45 c-3 25 -16 59 -29 76 -26 36
-24 63 4 69 19 3 19 3 3 -16 -10 -11 -18 -24 -18 -29 1 -5 13 5 28 22 15 17
40 39 55 49 16 10 42 42 59 72 16 29 34 53 39 53 6 0 27 -9 49 -20z m-239 -62
c-6 -17 -11 -48 -11 -69 0 -38 -1 -39 -37 -39 l-36 0 20 23 c28 31 43 61 45
94 2 28 20 51 26 32 2 -5 -1 -24 -7 -41z m129 12 c-12 -16 -24 -30 -26 -30 -7
0 5 20 24 43 24 27 25 20 2 -13z m-177 -58 c-31 -41 -43 -39 -43 7 0 34 4 43
28 55 26 14 27 13 30 -11 2 -15 -5 -37 -15 -51z m354 46 c-3 -7 -5 -2 -5 12 0
14 2 19 5 13 2 -7 2 -19 0 -25z m-574 -132 c17 -26 17 -26 -7 -35 -87 -34
-141 -25 -162 25 -8 20 -14 37 -12 39 2 1 21 11 42 21 22 10 53 32 70 49 l31
31 10 -52 c6 -28 19 -63 28 -78z m617 84 c0 -13 -1 -13 -10 0 -5 8 -10 22 -10
30 0 13 1 13 10 0 5 -8 10 -22 10 -30z m-448 -18 c3 -34 -12 -52 -44 -52 -24
0 -23 27 3 69 23 38 36 32 41 -17z m402 -74 c-21 -43 -85 -121 -92 -114 -3 3
2 14 11 23 20 23 67 123 67 145 0 9 6 30 13 45 12 27 12 27 15 -19 2 -30 -3
-59 -14 -80z m-52 -20 c-42 -97 -118 -151 -178 -127 l-29 11 58 29 c31 16 81
54 110 83 28 30 54 53 55 51 2 -2 -5 -23 -16 -47z m-334 14 c3 -21 0 -23 -34
-20 -44 4 -54 20 -22 36 33 16 53 10 56 -16z m62 18 c0 -5 -9 -14 -20 -20 -15
-8 -21 -6 -30 10 -10 18 -8 20 20 20 16 0 30 -4 30 -10z m47 -41 c7 -13 13
-37 13 -52 0 -47 -24 -26 -36 32 -13 56 -1 67 23 20z m-33 -35 l15 -49 -30 35
c-31 37 -36 56 -16 63 16 6 15 8 31 -49z m-25 -20 l42 -57 -27 -28 c-15 -16
-31 -26 -37 -22 -14 9 -87 125 -87 139 0 7 15 15 33 17 17 2 32 5 33 5 1 1 20
-23 43 -54z m302 -7 c-49 -72 -134 -143 -185 -156 -62 -15 -262 -13 -309 3
-84 30 -160 109 -144 150 14 37 56 18 142 -64 71 -68 89 -80 117 -80 19 0 39
5 46 12 9 9 18 9 37 0 70 -32 145 -1 248 104 39 40 73 74 75 74 2 0 -11 -20
-27 -43z m-96 -63 c-73 -65 -152 -91 -195 -64 -12 8 -10 14 15 42 17 18 30 34
31 36 1 1 14 -4 30 -13 16 -8 37 -15 46 -15 22 0 88 31 88 42 0 4 6 8 13 8 6
-1 -6 -17 -28 -36z"/>
<path d="M2790 2505 c-7 -9 -11 -18 -8 -20 3 -3 11 1 18 10 7 9 11 18 8 20 -3
3 -11 -1 -18 -10z"/>
<path d="M3173 2968 c-52 -57 -59 -132 -18 -192 25 -37 25 -38 6 -62 -10 -13
-22 -41 -25 -61 -4 -21 -9 -50 -12 -65 -3 -16 -1 -28 4 -28 5 0 12 25 15 55 6
57 34 118 52 112 22 -8 48 -70 47 -115 0 -30 3 -41 9 -31 22 35 1 101 -51 159
-73 80 -79 154 -19 216 18 19 28 34 23 34 -6 0 -20 -10 -31 -22z"/>
<path d="M3392 2858 c-48 -52 -54 -118 -17 -192 21 -44 22 -52 9 -70 -39 -56
0 -171 71 -208 11 -6 1 9 -22 35 -57 62 -70 141 -29 179 12 11 10 19 -9 53
-44 75 -39 150 12 207 9 10 14 18 11 18 -2 0 -14 -10 -26 -22z"/>
<path d="M3561 2836 c-1 -11 -22 -40 -48 -65 -44 -42 -45 -44 -13 -25 37 21
75 76 67 96 -3 7 -6 5 -6 -6z"/>
<path d="M3640 2546 c0 -8 -11 -28 -25 -44 -31 -37 -31 -42 -2 -42 29 0 64
-36 83 -87 l15 -38 -6 34 c-7 47 -30 80 -66 95 -26 11 -28 14 -15 25 18 15 39
71 25 71 -5 0 -9 -6 -9 -14z"/>
<path d="M3499 2221 c-50 -31 -82 -90 -94 -171 -6 -41 -11 -48 -50 -69 -44
-23 -67 -49 -85 -96 -6 -16 -6 -25 0 -25 6 0 10 8 10 19 0 27 37 69 81 92 44
22 51 36 69 124 13 60 39 96 100 137 42 29 17 20 -31 -11z"/>
<path d="M3726 2150 c-26 -32 -34 -64 -17 -75 5 -3 15 -29 21 -58 12 -51 11
-57 -26 -150 -21 -53 -41 -97 -45 -97 -4 0 -10 11 -13 24 -3 13 -22 38 -41 55
-31 27 -43 31 -90 31 -49 0 -58 -4 -89 -35 -19 -19 -40 -52 -46 -72 -11 -37
-13 -38 -58 -39 -26 0 -62 -6 -79 -14 -30 -13 -36 -12 -65 4 l-33 19 19 -21
c23 -26 55 -28 98 -6 21 11 45 14 73 11 l41 -6 17 49 c23 63 66 100 118 100
57 0 92 -22 120 -74 13 -25 27 -46 30 -46 4 0 19 30 35 66 l28 66 23 -26 c28
-33 29 -58 3 -115 -27 -59 -24 -66 5 -11 31 58 32 101 1 137 -22 26 -23 33
-14 75 9 38 8 55 -6 95 -9 26 -19 55 -22 63 -3 9 7 28 22 43 15 15 25 30 22
33 -3 2 -17 -9 -32 -26z"/>
<path d="M3248 2136 c47 -53 41 -105 -16 -153 -15 -13 -22 -23 -16 -23 5 0 23
13 38 29 39 41 45 96 14 140 -12 19 -30 37 -38 39 -8 3 0 -11 18 -32z"/>
<path d="M3059 2093 c15 -29 42 -43 78 -42 27 1 27 1 -5 9 -18 4 -45 18 -59
31 -25 24 -26 24 -14 2z"/>
<path d="M3512 1662 c-16 -42 -34 -71 -57 -89 l-33 -27 19 -37 c37 -74 20
-148 -48 -206 -17 -15 -20 -20 -8 -14 74 35 105 133 70 217 -15 35 -14 37 15
64 17 16 36 43 44 61 l13 32 13 -39 c17 -52 47 -84 79 -83 24 1 23 2 -6 10
-39 11 -53 35 -68 114 l-11 59 -22 -62z"/>
<path d="M3697 1585 c32 -23 35 -54 8 -81 -13 -13 -20 -24 -15 -24 6 0 19 9
31 21 15 15 19 28 14 47 -8 34 -23 52 -43 52 -13 0 -12 -3 5 -15z"/>
<path d="M5733 1303 c9 -2 23 -2 30 0 6 3 -1 5 -18 5 -16 0 -22 -2 -12 -5z"/>
<path d="M5525 1293 c-22 -2 -119 -8 -215 -13 l-175 -9 200 6 c110 3 241 9
290 13 l90 7 -75 0 c-41 0 -93 -2 -115 -4z"/>
</g>
</svg>
